<?xml version="1.0" encoding="utf-8"?>
<!-- Generator: Adobe Illustrator 28.0.0, SVG Export Plug-In . SVG Version: 6.00 Build 0)  -->
<svg version="1.1" id="Layer_2_00000183247378847442987870000010633191156652881555_"
	 xmlns="http://www.w3.org/2000/svg" xmlns:xlink="http://www.w3.org/1999/xlink" x="0px" y="0px" viewBox="0 0 120.8 101"
	 style="enable-background:new 0 0 120.8 101;" xml:space="preserve">
<style type="text/css">
	.st0{fill:#FF9D2D;}
	.st1{fill:#FFFFFF;}
	.st2{fill:#7A0D10;}
	.st3{fill:#953D40;}
	.st4{fill:#872528;}
	.st5{fill:#FFB157;}
	.st6{fill:#FFBA6C;}
</style>
<g id="OBJECTS">
	<g>
		<path class="st0" d="M113.7,72.3H30.3l-20-67.2C9.7,3,10.9,0.8,13,0.2c2.1-0.6,4.4,0.6,5,2.7l18.3,61.5h77.6
			c2.5,0,4.4,2.2,3.9,4.8C117.4,71,115.6,72.3,113.7,72.3L113.7,72.3z"/>
		<path class="st0" d="M102.9,91.3h-81l7.6-23.9c0.7-2.3,3.4-3.5,5.7-2.3c1.8,0.9,2.5,3.1,1.9,4.9l-4.2,13.3h70.3
			c2.5,0,4.4,2.2,3.9,4.8C106.6,90,104.8,91.3,102.9,91.3L102.9,91.3z"/>
		<g>
			<g>
				<circle class="st1" cx="88.5" cy="88.8" r="8.5"/>
				<path class="st0" d="M88,101c-6.8,0-12.4-5.6-12.4-12.4S81.2,76.2,88,76.2s12.4,5.6,12.4,12.4S94.8,101,88,101z M88,84.2
					c-2.4,0-4.4,2-4.4,4.4s2,4.4,4.4,4.4s4.4-2,4.4-4.4S90.4,84.2,88,84.2z"/>
			</g>
			<g>
				<circle class="st1" cx="43.5" cy="88.8" r="8.5"/>
				<path class="st0" d="M43.5,101c-6.8,0-12.4-5.6-12.4-12.4s5.6-12.4,12.4-12.4s12.4,5.6,12.4,12.4S50.4,101,43.5,101z M43.5,84.2
					c-2.4,0-4.4,2-4.4,4.4s2,4.4,4.4,4.4s4.4-2,4.4-4.4S46,84.2,43.5,84.2z"/>
			</g>
		</g>
		<polygon class="st2" points="111.1,58.3 120.8,16.3 27.8,16.3 40.3,58.3 		"/>
		<path class="st3" d="M27.3,24.7c0,3.2-2.6,5.8-5.8,5.8s-5.8-2.6-5.8-5.8s2.6-5.8,5.8-5.8S27.3,21.5,27.3,24.7z"/>
		<path class="st3" d="M30.8,33.6c0,1.8-1.5,3.2-3.2,3.2s-3.2-1.5-3.2-3.2s1.5-3.2,3.2-3.2S30.8,31.8,30.8,33.6z"/>
		<circle class="st4" cx="33" cy="47.3" r="10"/>
		<path class="st5" d="M20.5,45c0,2.1-1.7,3.8-3.8,3.8s-3.8-1.7-3.8-3.8s1.7-3.8,3.8-3.8S20.5,42.9,20.5,45z"/>
		<circle class="st6" cx="2" cy="32.3" r="2"/>
		<path class="st5" d="M14.5,31.1c0,0.9-0.7,1.6-1.6,1.6s-1.6-0.7-1.6-1.6s0.7-1.6,1.6-1.6S14.5,30.2,14.5,31.1z"/>
		<circle class="st5" cx="7.5" cy="50.8" r="1.5"/>
		<path class="st6" d="M7.7,21.4c0,0.6-0.5,1.1-1.1,1.1S5.6,22,5.6,21.4s0.5-1.1,1.1-1.1S7.7,20.8,7.7,21.4z"/>
	</g>
</g>
</svg>
