<?xml version="1.0" encoding="UTF-8"?>
<svg id="Layer_2" data-name="Layer 2" xmlns="http://www.w3.org/2000/svg" xmlns:xlink="http://www.w3.org/1999/xlink" viewBox="0 0 3347 2247.96">
  <defs>
    <style>
      .cls-1, .cls-2, .cls-3, .cls-4, .cls-5 {
        stroke-width: 0px;
      }

      .cls-2 {
        fill: none;
      }

      .cls-3 {
        fill: #c19400;
      }

      .cls-4 {
        fill: #fff;
      }

      .cls-5 {
        fill: #cf0821;
      }

      .cls-6 {
        clip-path: url(#clippath);
      }
    </style>
    <clipPath id="clippath">
      <rect class="cls-2" width="3347" height="2247.96"/>
    </clipPath>
  </defs>
  <g id="Layer_1-2" data-name="Layer 1">
    <g>
      <g class="cls-6">
        <path class="cls-5" d="m0,.28l.07,749.03,2387.02-.23,959.59-.09-.07-749.03L0,.28Z"/>
      </g>
      <path class="cls-4" d="m3346.69,748.99L.07,749.32l.07,749.03,1667.32-.16,1679.29-.17-.07-749.03Z"/>
      <path class="cls-1" d="m3346.76,1498.02L.14,1498.35l.07,749.04,3346.61-.34-.07-749.03Z"/>
      <path class="cls-3" d="m1676,946.97l-3.12-1.26,14.45-15.01c.62-.65,1.63-.74,2.36-.21,5.34,3.83,10.47,7.49,15.8,9.68,5.31,2.18,10.92,2.95,16.79,3.73l-2.04,2.02-1.36-10.93c-.09-.68.22-1.35.79-1.73.57-.38,1.3-.41,1.9-.07,3.58,2.04,6.91,3.92,11.09,4.85,3.67.82,8.07.93,12.77.93.67,0,1.41,0,2.08,0l-1.32,3.05c-1.75-1.88-3.62-3.89-5.06-6.02-1.45-2.14-2.42-4.37-3.32-6.42-.27-.62-.17-1.33.25-1.86.42-.53,1.1-.78,1.76-.65,4.83.93,9.5,1.83,15.12,1.83,7.38,0,16.54-1.55,29.79-6.85,7.67-3.06,16.7-7.38,26.26-11.95,10.6-5.07,21.85-10.45,32.52-14.71,9.01-3.6,17.7-6.45,25.31-7.62,2.83-.44,5.51-.65,8.05-.65,19.94,0,30.54,12.68,36.25,24.53,6.46,13.43,6.91,26.38,9.76,101.5v.39s13.44,353.83,13.44,353.83c.03.73-.39,1.41-1.05,1.71-.66.31-1.44.19-1.98-.31l-141.59-129.64c-.74-.68-.79-1.82-.11-2.56.68-.74,1.82-.79,2.56-.11l141.59,129.64-3.04,1.41-13.43-353.83-.02-.38c-2.87-75.67-3.36-87.52-9.4-100.06-5.39-11.2-15-22.48-32.98-22.48-2.34,0-4.84.19-7.5.6-7.21,1.11-15.6,3.84-24.52,7.41-10.54,4.21-21.68,9.53-32.31,14.62-9.53,4.55-18.68,8.93-26.48,12.05-13.57,5.42-23.19,7.1-31.14,7.1-6.02,0-11-.96-15.82-1.9l2.01-2.51c.92,2.09,1.77,4.02,3,5.85,1.25,1.85,2.91,3.65,4.71,5.58.49.53.62,1.3.33,1.96-.29.66-.94,1.09-1.66,1.09-.68,0-1.42,0-2.1,0-4.67,0-9.45-.09-13.56-1.02-4.78-1.07-8.55-3.23-12.09-5.24l2.7-1.8,1.36,10.93c.07.56-.13,1.12-.52,1.51-.4.4-.96.59-1.51.51-5.8-.77-11.87-1.58-17.69-3.97-5.8-2.39-11.27-6.32-16.53-10.09l2.36-.21-14.45,15.01c-.51.53-1.3.7-1.98.42-.69-.28-1.14-.94-1.14-1.68,0-1,.81-1.82,1.82-1.82s1.81.81,1.81,1.82h0Z"/>
      <path class="cls-3" d="m1672.44,946.97l3.12-1.26-14.45-15.01c-.63-.65-1.63-.74-2.36-.22-5.34,3.83-10.46,7.5-15.8,9.69-5.31,2.18-10.92,2.94-16.79,3.73l2.04,2.02,1.36-10.93c.09-.68-.22-1.35-.79-1.73-.57-.38-1.31-.41-1.9-.07-3.58,2.04-6.91,3.92-11.09,4.86-3.68.82-8.07.93-12.77.93-.67,0-1.41,0-2.09,0l1.32,3.05c1.75-1.88,3.63-3.89,5.06-6.02,1.44-2.15,2.42-4.36,3.32-6.42.27-.62.18-1.33-.24-1.86-.42-.53-1.1-.78-1.76-.65-4.83.93-9.5,1.84-15.13,1.84-7.38,0-16.54-1.55-29.79-6.84-7.67-3.06-16.7-7.38-26.26-11.94-10.6-5.07-21.86-10.44-32.53-14.71-9.01-3.6-17.7-6.44-25.31-7.62-2.83-.44-5.51-.64-8.05-.64-19.94,0-30.54,12.69-36.24,24.53-6.46,13.43-6.91,26.38-9.74,101.5v.38s-13.37,353.84-13.37,353.84c-.03.73.39,1.41,1.05,1.72.66.31,1.45.18,1.99-.31l141.57-129.67c.74-.68.79-1.82.11-2.56-.68-.74-1.82-.79-2.56-.11l-141.57,129.67,3.04,1.41,13.36-353.84v-.38c2.87-75.67,3.36-87.52,9.4-100.06,5.39-11.2,15-22.48,32.97-22.48,2.34,0,4.84.19,7.5.6,7.21,1.11,15.6,3.84,24.52,7.4,10.54,4.21,21.68,9.53,32.3,14.61,9.53,4.55,18.68,8.93,26.48,12.04,13.57,5.42,23.2,7.1,31.14,7.1,6.02,0,11-.97,15.82-1.9l-2.01-2.51c-.92,2.09-1.77,4.02-3,5.85-1.25,1.85-2.91,3.65-4.71,5.58-.49.53-.62,1.3-.34,1.96.28.66.94,1.09,1.66,1.09.68,0,1.42,0,2.1,0,4.66,0,9.45-.09,13.56-1.02,4.77-1.07,8.55-3.23,12.09-5.24l-2.7-1.8-1.36,10.93c-.07.56.13,1.12.52,1.51.4.4.96.58,1.52.51,5.8-.77,11.87-1.58,17.69-3.97,5.8-2.38,11.27-6.32,16.53-10.09l-2.36-.22,14.45,15.01c.52.53,1.3.7,1.99.42.68-.28,1.13-.94,1.13-1.68,0-1-.81-1.82-1.81-1.82s-1.81.81-1.81,1.82h0Z"/>
      <path class="cls-3" d="m1671.92,959.34l.69-1.79c-11.08,8.35-21.96,16.54-40.46,22.03-7.77,2.31-16.91,4.14-26.89,5.7-13.88,2.17-29.29,3.8-44.75,5.44-.49.05-.94.3-1.25.7-.3.39-.43.89-.35,1.38,7.21,47.57,14.46,95.52,33.52,133.65h0c19.08,38.18,49.95,66.4,80.5,94.36.74.68,1.88.63,2.56-.11.68-.74.63-1.89-.11-2.56-30.64-28.04-60.97-55.83-79.71-93.3h0c-18.75-37.52-25.95-84.85-33.18-132.57l-1.61,2.07c15.45-1.64,30.95-3.27,44.93-5.46h0c10.05-1.57,19.37-3.44,27.36-5.81,19.16-5.69,30.48-14.22,41.61-22.61.55-.41.82-1.1.69-1.78-.18-.98-1.13-1.63-2.12-1.45-.98.18-1.63,1.13-1.45,2.12h0Z"/>
      <path class="cls-3" d="m1676.53,959.33h0s0,0,0,0l-.69-1.78c11.08,8.34,21.96,16.53,40.46,22.02,7.77,2.3,16.91,4.14,26.89,5.7h0c13.88,2.17,29.29,3.8,44.75,5.43.49.05.94.3,1.25.7.3.39.43.89.35,1.38-7.2,47.57-14.44,95.52-33.5,133.66h0c-19.08,38.18-49.93,66.4-80.49,94.37-.74.68-1.88.63-2.56-.11-.68-.74-.62-1.89.11-2.56,30.64-28.05,60.96-55.84,79.69-93.32h0c18.75-37.52,25.93-84.86,33.16-132.58l1.6,2.07c-15.44-1.63-30.95-3.27-44.93-5.45-10.06-1.58-19.37-3.44-27.35-5.81-19.17-5.68-30.49-14.22-41.62-22.6-.55-.41-.82-1.1-.69-1.78h0s0,0,0,0c.18-.98,1.13-1.63,2.12-1.45.98.18,1.63,1.13,1.45,2.11h0Z"/>
      <path class="cls-3" d="m1672.31,971.5h0l.8-1.75-.05.03h0c-12.23,8.04-24.26,15.94-40.76,20.88-11.07,3.32-24.22,5.32-38.15,6.89h0c-6.91.78-13.98,1.45-21.08,2.12h0c-.48.05-.93.29-1.24.66-.31.38-.45.87-.39,1.36,4.73,40.2,9.5,80.79,26.49,115.62,16.99,34.83,46.15,63.78,75.02,92.46.71.7,1.86.7,2.57,0,.7-.71.7-1.86,0-2.57-28.97-28.78-57.65-57.31-74.32-91.48-16.67-34.18-21.39-74.12-26.15-114.46l-1.63,2.02h0c7.09-.67,14.2-1.34,21.14-2.13h0c13.98-1.57,27.38-3.61,38.78-7.02h0c17.07-5.11,29.5-13.29,41.71-21.32l.05-.03c.58-.38.89-1.06.8-1.75h0s0,0,0,0c-.13-.99-1.04-1.69-2.04-1.56-.99.13-1.69,1.04-1.56,2.04h0Z"/>
      <path class="cls-3" d="m1676.14,971.5l-.8-1.75.05.03h0c12.23,8.04,24.26,15.93,40.76,20.88,11.07,3.31,24.22,5.32,38.15,6.88h0c6.91.78,13.98,1.45,21.08,2.12h0c.49.05.93.28,1.24.66.31.38.45.87.39,1.36-4.73,40.2-9.48,80.8-26.47,115.63-16.98,34.83-46.14,63.79-75.01,92.48-.71.7-1.85.7-2.56,0-.71-.71-.7-1.86,0-2.57h0c28.96-28.79,57.63-57.32,74.3-91.5,16.66-34.18,21.38-74.13,26.12-114.47l1.63,2.02h0c-7.09-.67-14.2-1.34-21.14-2.12h0c-13.98-1.57-27.38-3.6-38.78-7.02h0c-17.07-5.11-29.5-13.29-41.71-21.32h0s-.05-.03-.05-.03c-.58-.38-.9-1.06-.8-1.75.13-1,1.04-1.7,2.04-1.56.99.13,1.69,1.04,1.56,2.04h0Z"/>
      <path class="cls-3" d="m1637.06,989.69h0s0,0,0,0c-.02.1-.03.21-.03.31h0s1.03,181.61,1.03,181.61c0,1,.82,1.81,1.82,1.81,1,0,1.81-.82,1.8-1.82l-1.02-181.61-.03.31h0c.16-.99-.5-1.92-1.49-2.09-.99-.17-1.92.5-2.09,1.49h0Z"/>
      <path class="cls-3" d="m1711.4,989.68h0s0,0,0,0c.02.1.03.21.02.31h0s-.99,181.61-.99,181.61c0,1-.82,1.81-1.83,1.8-1,0-1.81-.82-1.8-1.82l.99-181.61.02.31h0c-.16-.99.5-1.92,1.49-2.09.99-.16,1.92.5,2.09,1.49h0Z"/>
      <path class="cls-3" d="m1759.48,1120.85h0s-.08-.5-.08-.5l65.7,226.27c.28.96-.27,1.97-1.24,2.25-.96.28-1.96-.27-2.25-1.23l-65.7-226.27c-.05-.16-.07-.34-.07-.5h0c0-1,.81-1.82,1.81-1.82s1.82.81,1.82,1.81h0Z"/>
      <path class="cls-3" d="m1589.01,1120.87h0s.07-.5.07-.5l-65.65,226.28c-.28.96.28,1.97,1.24,2.25.96.28,1.97-.28,2.25-1.24l65.65-226.29c.05-.16.07-.34.07-.5h0c0-1-.81-1.82-1.81-1.82s-1.81.81-1.81,1.81h0Z"/>
      <path class="cls-3" d="m1727.55,1360.12c0,.93-.7,1.71-1.63,1.81-.93.1-1.77-.52-1.96-1.43l-32.7-157.33c-.2-.98.43-1.94,1.41-2.14.98-.21,1.94.42,2.14,1.41l32.7,157.33-3.59.37h0c0-1,.81-1.82,1.82-1.82s1.81.81,1.81,1.81h0Z"/>
      <path class="cls-3" d="m1620.98,1360.13c0,.93.7,1.71,1.63,1.8.93.09,1.77-.52,1.96-1.44l32.67-157.34c.2-.98-.43-1.94-1.41-2.14-.98-.2-1.94.43-2.14,1.41l-32.67,157.34,3.59.37c0-1-.81-1.82-1.81-1.82s-1.81.81-1.81,1.82h0Z"/>
      <path class="cls-3" d="m1600.37,1140.47h0s0,0,0,0c-.23.35-.34.78-.29,1.2h0s9.45,88.01,9.45,88.01c.08.73.59,1.35,1.3,1.55.71.2,1.47-.04,1.93-.62l30.7-39.01c.62-.79.48-1.93-.31-2.55-.78-.62-1.92-.49-2.55.31l-30.7,39.01,3.23.93-9.44-88.01-.29,1.2h0c.55-.83.33-1.96-.5-2.51-.83-.56-1.96-.33-2.52.5h0Z"/>
      <path class="cls-3" d="m1748.12,1140.46c.23.35.34.78.29,1.2l-9.43,88.01c-.08.73-.59,1.35-1.3,1.55-.71.2-1.47-.04-1.93-.62l-30.71-39c-.62-.79-.48-1.93.3-2.55.79-.62,1.93-.48,2.55.3h0s30.71,39,30.71,39l-3.23.93,9.43-88.01.29,1.2c-.56-.84-.33-1.96.5-2.52.83-.55,1.96-.33,2.51.5h0Z"/>
      <path class="cls-3" d="m1620.5,1169.95h0s0,0,0,0l.56-1.21-43.99,41.61,2.9.57c-3.11-6.82-6.28-13.64-7.25-38.45-.98-24.96.27-67.89,1.52-110.94.03-1-.76-1.84-1.76-1.87-1-.03-1.84.76-1.87,1.76-1.25,42.98-2.5,86.07-1.52,111.18h0c.99,25.25,4.25,32.53,7.57,39.82.24.53.73.91,1.3,1.03.57.11,1.17-.06,1.59-.46l43.99-41.6c.34-.32.54-.75.57-1.21h0s0,0,0,0c.06-1-.7-1.86-1.7-1.92-1-.06-1.86.7-1.92,1.7h0Z"/>
      <path class="cls-3" d="m1728,1169.94l-.57-1.21,44,41.6-2.9.57c3.11-6.82,6.27-13.64,7.24-38.45.98-24.96-.28-67.89-1.54-110.94-.03-1,.76-1.84,1.76-1.86,1-.03,1.84.76,1.87,1.76h0c1.26,42.98,2.52,86.08,1.54,111.19-.98,25.25-4.25,32.54-7.57,39.82-.24.53-.73.91-1.3,1.03-.58.11-1.17-.06-1.59-.46l-44-41.6c-.33-.32-.54-.75-.56-1.21-.06-1,.7-1.86,1.7-1.92,1-.06,1.86.7,1.92,1.7h0Z"/>
      <path class="cls-3" d="m1720.11,1206.69h0s0,0,0,0c.02.22,0,.44-.07.66l-.07.23h0c-3.5,11.57-6.98,23.07-9.16,31.12h0c-2.2,8.09-3.09,12.7-4,17.34l-.29-1.38,46.58,67.16-3.21.46,12.04-35.93c.22-.66.81-1.14,1.5-1.23.69-.08,1.38.24,1.75.83h0s40.73,64.18,40.73,64.18c.54.84.29,1.96-.56,2.5-.85.53-1.96.29-2.5-.56h0s-40.73-64.18-40.73-64.18l3.25-.4-12.04,35.93c-.22.65-.78,1.12-1.46,1.22-.68.1-1.36-.2-1.75-.76l-46.58-67.16c-.28-.4-.38-.9-.29-1.38h0c.91-4.68,1.83-9.39,4.06-17.59,2.2-8.12,5.7-19.68,9.19-31.23h0s.07-.23.07-.23l-.07.65h0c-.07-1,.68-1.87,1.68-1.94,1-.07,1.87.68,1.94,1.68h0Z"/>
      <path class="cls-3" d="m1628.39,1206.7h0s0,0,0,0c-.02.22.01.45.07.66l.07.24c3.5,11.56,6.98,23.06,9.17,31.12h0c2.2,8.09,3.1,12.69,4,17.34l.29-1.38-46.56,67.17,3.21.45-12.05-35.93c-.22-.66-.81-1.14-1.5-1.22-.7-.09-1.38.24-1.75.83h0s-40.72,64.19-40.72,64.19c-.53.85-.28,1.97.56,2.5.84.54,1.96.28,2.5-.56l40.72-64.19-3.25-.4,12.05,35.93c.22.65.79,1.12,1.46,1.22.68.09,1.36-.2,1.75-.76l46.57-67.17c.28-.4.38-.9.29-1.38-.91-4.68-1.83-9.39-4.06-17.59-2.21-8.12-5.7-19.68-9.2-31.22l-.07-.24.07.65h0c.07-1-.68-1.86-1.68-1.94-1-.07-1.87.68-1.94,1.68h0Z"/>
      <path class="cls-3" d="m1776.89,1355.8h0s0,0,0,0l-3.56-.35,24.59-88.46.43,1.73-29.59-31.54,3.06-.71-9.72,32.18c-.2.65-.74,1.14-1.4,1.26-.67.12-1.35-.13-1.76-.67l-21.39-27.41,3.21-.74-18.82,90.06c-.21.98-1.17,1.61-2.15,1.4-.98-.2-1.61-1.16-1.4-2.14l18.82-90.06c.14-.69.68-1.24,1.36-1.4.69-.16,1.41.09,1.84.65l21.39,27.41-3.17.59,9.72-32.18c.19-.62.69-1.09,1.32-1.24.63-.15,1.29.05,1.73.53l29.59,31.54c.43.46.59,1.12.43,1.73h0s-24.59,88.47-24.59,88.47c-.23.85-1.05,1.4-1.92,1.32-.88-.09-1.57-.79-1.63-1.67h0s0,0,0,0c-.07-1,.68-1.87,1.67-1.94,1-.07,1.87.68,1.95,1.67h0Z"/>
      <path class="cls-3" d="m1571.64,1355.83l3.55-.35-24.61-88.46-.42,1.73,29.58-31.55-3.06-.71,9.73,32.18c.19.65.74,1.13,1.41,1.26.66.13,1.34-.13,1.76-.67l21.38-27.42-3.21-.74,18.84,90.06c.2.98,1.16,1.61,2.14,1.41.98-.21,1.61-1.17,1.41-2.15h0s-18.84-90.06-18.84-90.06c-.14-.69-.68-1.24-1.36-1.39-.69-.16-1.41.09-1.84.65h0s-21.38,27.42-21.38,27.42l3.17.59-9.73-32.18c-.19-.62-.69-1.09-1.32-1.24-.63-.15-1.29.05-1.74.53l-29.58,31.55c-.43.46-.59,1.11-.42,1.73l24.6,88.46c.24.85,1.05,1.41,1.93,1.32.88-.09,1.57-.79,1.63-1.67h0s0,0,0,0c.07-1-.68-1.87-1.68-1.95-1-.07-1.87.68-1.94,1.68h0Z"/>
      <path class="cls-3" d="m1600.78,1359.11l3.52-.63-8.57-23.19c-.24-.65-.81-1.1-1.49-1.18-.68-.07-1.35.23-1.72.8h0s-13.78,20.93-13.78,20.93c-.55.84-.32,1.96.52,2.51.84.55,1.96.32,2.51-.52l13.79-20.93-3.22-.37,8.57,23.19c.3.82,1.16,1.31,2.02,1.16.87-.16,1.5-.91,1.5-1.79,0-1-.81-1.82-1.81-1.82s-1.82.81-1.82,1.82h0Z"/>
      <path class="cls-3" d="m1747.75,1359.1l-3.52-.63,8.57-23.19c.24-.64.82-1.1,1.5-1.17.68-.08,1.34.23,1.72.8h0s13.79,20.93,13.79,20.93c.55.84.32,1.96-.52,2.52-.84.55-1.96.32-2.51-.52h0s-13.79-20.93-13.79-20.93l3.21-.37-8.57,23.19c-.3.82-1.16,1.31-2.02,1.16-.87-.15-1.5-.91-1.5-1.79h0s0,0,0,0c0-1,.81-1.81,1.81-1.81s1.82.81,1.82,1.81h0Z"/>
      <path class="cls-3" d="m1663.33,1402.46c2.67-4.01,5.52-8.27,7.06-13.72,1.51-5.35,1.8-12.04-.2-16.78-2.06-4.87-6.36-7.37-9.29-8.27-1.1-.34-2.17-.51-3.17-.39-1.93.23-3.14,1.46-3.7,3.12h0c-.24.71-.37,1.53-.48,2.19h0c-.14.9-.28,1.73-.57,2.57h0c-.23.7-.56,1.37-1.06,2.02h0c-.73.95-1.87,1.89-3.2,2.99h0c-1.19.98-2.59,2.12-3.54,3.34h0c-.34.43-.64.91-.87,1.43-1.73,3.97,1.82,7.42,4.85,9.21h0c1.35.8,2.85,1.44,4.19,2.02,1.32.57,2.47,1.06,3.43,1.63.52.31.94.61,1.26.92,1.51,1.43,1.75,3.65,1.98,6.86.05.77.6,1.43,1.35,1.62.75.2,1.54-.1,1.97-.75m-3.02-2.01l3.32.88c-.2-2.84-.39-6.66-3.11-9.24h0c-.58-.55-1.24-1.01-1.91-1.41h0c-1.2-.71-2.57-1.29-3.84-1.84h0c-1.38-.59-2.66-1.14-3.77-1.8-3.12-1.84-3.79-3.66-3.37-4.63.08-.18.21-.4.41-.66h0c.64-.82,1.68-1.69,2.97-2.76h0c1.24-1.02,2.73-2.23,3.77-3.57h0c.79-1.02,1.29-2.07,1.63-3.08h0c.39-1.16.57-2.28.71-3.14.12-.76.21-1.25.33-1.62h0c.19-.56.38-.64.69-.68h0c.32-.04.85,0,1.67.26,2.27.7,5.51,2.64,7.02,6.22,1.56,3.7,1.44,9.47.05,14.38-1.36,4.82-3.88,8.63-6.58,12.69h0Z"/>
      <path class="cls-3" d="m1655.54,1368.61h0s0,0,0,0c.5-.18.89-.58,1.07-1.09.18-.5.13-1.05-.14-1.52h0s0,0,0,0h0c-1.46-2.54-3.23-5.71-6.38-7.34h0c-3.06-1.58-7.21-1.58-10.72-1.62-.05,0-.09,0-.14,0-18.54,1.19-36.91,2.37-58.22-.47-14.61-1.95-30.63-5.79-43.95-8.98-6.13-1.47-11.7-2.8-16.25-3.74-14.54-2.99-18.94-1.96-23.37-.84-.78.2-1.34.9-1.37,1.71h0s-.55,19.06-.55,19.06c-.01.51.19,1.01.56,1.36.37.36.87.54,1.38.5.91-.06,1.88-.2,9.82,1.64h0c4.31,1,10.61,2.58,17.07,4.19h0c5.42,1.36,10.95,2.73,15.48,3.82,9.93,2.38,15.04,3.36,20.13,4.32l-1.23-.87c3.11,5.33,6.14,10.54,7.74,14.01h0c1.54,3.35,1.72,5,1.92,6.75.09.82.74,1.48,1.56,1.59.82.11,1.62-.35,1.93-1.12.85-2.12,1.64-4.09,3.69-6.75h0c2.12-2.75,5.57-6.22,9.15-9.81l-1.49.52c7.43.85,14.94,1.72,25.31,1.9h0c10.34.18,23.53-.32,36.64-.81,1-.04,1.78-.88,1.75-1.88-.04-1-.88-1.78-1.88-1.74-13.15.5-26.22.99-36.44.81-10.18-.18-17.54-1.02-24.96-1.88-.55-.06-1.1.13-1.49.52h0c-3.52,3.53-7.16,7.19-9.45,10.16-2.36,3.06-3.3,5.41-4.19,7.61l3.48.47c-.23-1.98-.47-4.04-2.23-7.85-1.69-3.67-4.84-9.06-7.9-14.32-.26-.45-.71-.77-1.23-.87-5.06-.96-10.11-1.92-19.96-4.29-4.51-1.09-10.02-2.46-15.45-3.82h0c-6.45-1.61-12.79-3.19-17.12-4.2-7.97-1.85-9.39-1.83-10.89-1.73l1.93,1.86.55-19.06-1.37,1.71c3.82-.97,7.67-2.02,21.75.87h0c4.48.92,9.99,2.24,16.14,3.71h0c13.28,3.18,29.48,7.07,44.31,9.04h0c21.71,2.89,40.41,1.69,58.93.5h-.13c3.81.04,6.96.12,9.09,1.22,2.04,1.05,3.32,3.17,4.91,5.92h0s0,0,0,0l.94-2.6c-.94.35-1.41,1.39-1.07,2.33.35.94,1.4,1.41,2.34,1.06h0Z"/>
      <path class="cls-3" d="m1692.98,1368.61c-.5-.19-.89-.59-1.07-1.09-.18-.5-.13-1.05.14-1.52h0s0,0,0,0h0c1.46-2.54,3.23-5.71,6.38-7.34,3.05-1.58,7.21-1.59,10.71-1.62.05,0,.09,0,.14,0,18.54,1.19,36.91,2.36,58.22-.49,14.61-1.95,30.63-5.79,43.94-8.98h0c6.13-1.47,11.7-2.8,16.25-3.74,14.54-2.99,18.95-1.96,23.37-.84.79.2,1.35.9,1.37,1.71h0s.55,19.06.55,19.06c.02.51-.19,1.01-.55,1.36-.37.36-.87.54-1.38.5-.9-.06-1.87-.2-9.82,1.65-4.3,1-10.6,2.58-17.07,4.2-5.42,1.35-10.95,2.73-15.48,3.82-9.93,2.39-15.04,3.36-20.13,4.33l1.23-.87c-3.11,5.33-6.14,10.54-7.74,14.02-1.54,3.34-1.72,5-1.92,6.75-.09.82-.74,1.48-1.56,1.59-.82.11-1.62-.35-1.92-1.12-.85-2.12-1.65-4.09-3.7-6.75-2.12-2.75-5.57-6.22-9.15-9.81l1.49.52c-7.43.86-14.94,1.72-25.31,1.91-10.34.18-23.52-.31-36.64-.81-1-.03-1.78-.88-1.75-1.88.04-1,.88-1.78,1.88-1.75h0c13.15.5,26.22.99,36.44.8h0c10.18-.18,17.54-1.03,24.96-1.88.55-.06,1.1.13,1.49.52,3.52,3.53,7.16,7.18,9.46,10.16,2.36,3.06,3.31,5.41,4.19,7.61l-3.49.47c.23-1.98.48-4.04,2.23-7.85h0c1.7-3.68,4.84-9.06,7.9-14.32.27-.45.71-.77,1.23-.87h0c5.06-.97,10.11-1.93,19.96-4.29,4.51-1.09,10.02-2.46,15.45-3.82,6.45-1.61,12.78-3.2,17.12-4.21,7.97-1.86,9.4-1.84,10.89-1.74l-1.93,1.86-.55-19.06,1.37,1.71c-3.83-.97-7.67-2.02-21.75.88-4.49.92-9.99,2.24-16.14,3.71h0c-13.27,3.18-29.48,7.08-44.31,9.05h0c-21.71,2.9-40.41,1.7-58.93.51h.14c-3.81.04-6.96.12-9.09,1.22-2.04,1.05-3.32,3.17-4.91,5.92h0s0,0,0,0l-.94-2.6c.94.35,1.42,1.39,1.07,2.33-.35.94-1.39,1.41-2.34,1.07h0Z"/>
      <path class="cls-3" d="m1581.68,1381.87c.03.9.72,1.64,1.62,1.73.89.1,1.73-.48,1.95-1.35h0c.9-3.5,2.04-7.72.2-12.01-1.77-4.11-6.3-8.27-11.39-8.93-.49-.06-.98-.09-1.46-.09-4.59,0-9.1,2.67-11.42,5.88-2.65,3.67-2.37,7.96-2.19,11.45.05,1,.9,1.77,1.9,1.72,1-.05,1.77-.9,1.72-1.9-.19-3.73-.28-6.67,1.51-9.14h0c1.7-2.36,5.16-4.38,8.48-4.38.34,0,.67.02,1,.06,3.59.46,7.16,3.61,8.52,6.77h0c1.28,2.98.58,5.97-.38,9.68l3.57.39c-.04-1-.88-1.78-1.88-1.75-1,.03-1.79.87-1.75,1.88h0Z"/>
      <path class="cls-3" d="m1766.85,1381.85c-.03.9-.72,1.64-1.62,1.74-.89.1-1.73-.48-1.95-1.35-.9-3.5-2.05-7.73-.2-12.02h0c1.77-4.11,6.3-8.27,11.39-8.93.49-.06.98-.09,1.46-.09,4.59,0,9.1,2.67,11.42,5.88h0c2.65,3.67,2.37,7.96,2.19,11.45-.05,1-.9,1.77-1.9,1.72-1-.05-1.77-.91-1.72-1.91h0c.19-3.73.27-6.67-1.51-9.14-1.7-2.36-5.16-4.38-8.48-4.38h0c-.34,0-.67.02-1,.07-3.59.46-7.16,3.61-8.52,6.77h0c-1.28,2.98-.57,5.97.38,9.68l-3.57.38h0c.04-1,.88-1.78,1.88-1.75,1,.04,1.79.88,1.75,1.88h0Z"/>
      <path class="cls-3" d="m1640.28,1372.55l1.3-2.9-21.34,1.8c-1,.09-1.74.97-1.66,1.96.09,1,.96,1.74,1.96,1.66l21.34-1.8c.66-.05,1.23-.46,1.5-1.06.27-.6.19-1.3-.2-1.83h0s0,0,0,0c-.6-.8-1.73-.96-2.54-.36-.8.6-.96,1.74-.36,2.54h0Z"/>
      <path class="cls-3" d="m1708.25,1372.55h0s0,0,0,0l-1.3-2.89,21.34,1.8c1,.08,1.74.96,1.65,1.96-.08,1-.96,1.74-1.96,1.66l-21.34-1.79c-.66-.05-1.24-.47-1.5-1.07-.27-.6-.19-1.3.2-1.83.6-.8,1.74-.97,2.54-.37.8.6.97,1.74.37,2.54h0Z"/>
      <path class="cls-3" d="m1607.29,1371.68l1.45-2.94-18.89-.29c-1-.01-1.82.78-1.84,1.79-.02,1,.79,1.83,1.79,1.84l18.89.28c.7.01,1.34-.38,1.65-1.01.31-.62.23-1.37-.2-1.93h0s0,0,0,0c-.62-.78-1.76-.92-2.55-.3-.79.62-.92,1.76-.3,2.55h0Z"/>
      <path class="cls-3" d="m1741.23,1371.66h0s0,0,0,0l-1.45-2.94,18.88-.29c1-.02,1.83.79,1.84,1.79.02,1-.78,1.83-1.79,1.84l-18.88.29c-.7.01-1.34-.38-1.65-1.01-.31-.62-.23-1.37.2-1.93h0s0,0,0,0c.62-.79,1.76-.92,2.55-.3.79.62.92,1.76.3,2.55h0Z"/>
      <path class="cls-3" d="m1554.36,1365.9h0s1.77-2.92,1.77-2.92l-21.15-4.36c-.98-.2-1.94.43-2.14,1.41-.2.98.43,1.94,1.41,2.14l21.15,4.36c.75.16,1.52-.18,1.92-.84.4-.66.34-1.49-.15-2.09-.63-.77-1.78-.89-2.55-.25-.77.64-.89,1.78-.25,2.55h0Z"/>
      <path class="cls-3" d="m1794.17,1365.88h0s0,0,0,0l-1.77-2.93,21.15-4.37c.98-.2,1.94.43,2.14,1.41.2.98-.43,1.94-1.41,2.14l-21.15,4.36c-.75.16-1.52-.18-1.92-.84-.4-.66-.34-1.5.15-2.09.64-.77,1.78-.89,2.55-.25.77.64.89,1.78.25,2.55h0Z"/>
      <path class="cls-3" d="m1520.99,1357.28h0s0,0,0,0l2.02-2.78-16.39-5.17c-.95-.3-1.97.23-2.27,1.18-.3.95.23,1.97,1.18,2.27h0s16.39,5.17,16.39,5.17c.74.23,1.56-.04,2.01-.67.46-.63.46-1.49,0-2.12-.59-.81-1.72-1-2.53-.42-.82.59-1,1.72-.42,2.53h0Z"/>
      <path class="cls-3" d="m1827.54,1357.26l-2.02-2.79,16.39-5.17c.96-.3,1.98.23,2.28,1.18.3.96-.23,1.98-1.18,2.28l-16.4,5.17c-.75.23-1.55-.04-2.02-.66-.46-.63-.46-1.49,0-2.12h0s0,0,0,0c.59-.81,1.72-1,2.53-.41.81.58,1,1.71.42,2.53h0Z"/>
      <path class="cls-3" d="m1495.02,1344.31h0s1.76-1.44,1.76-1.44h0c-3.13.03-6.68.04-10.83,2.78-4,2.64-8.59,7.83-10.17,14.91h0c-1.55,6.96-.11,15.63,1.22,23.79.13.82.8,1.44,1.63,1.52.82.07,1.59-.42,1.87-1.2,1.84-5.2,3.54-9.91,6.25-12.98,2.65-3,6.38-4.54,10.62-6.23.93-.38,1.38-1.43,1.01-2.36-.37-.93-1.43-1.38-2.36-1.01-4.09,1.64-8.67,3.44-11.99,7.2h0c-3.27,3.7-5.18,9.18-6.95,14.16l3.5.32c-1.37-8.4-2.62-16.29-1.25-22.42h0c1.34-6.02,5.27-10.47,8.62-12.68h0c3.2-2.11,5.82-2.15,8.86-2.18h0s0,0,0,0c.85,0,1.58-.61,1.76-1.44.2-.98-.42-1.94-1.41-2.15-.98-.2-1.94.43-2.14,1.41h0Z"/>
      <path class="cls-3" d="m1853.5,1344.27h0s0,0,0,0l-1.76-1.44h0c3.12.03,6.68.04,10.83,2.78,4,2.64,8.59,7.83,10.17,14.91h0c1.55,6.96.11,15.63-1.21,23.79-.13.82-.8,1.44-1.63,1.52-.82.07-1.59-.42-1.87-1.2-1.84-5.2-3.55-9.91-6.25-12.97-2.65-3-6.38-4.54-10.62-6.23-.93-.37-1.38-1.43-1.01-2.36.37-.93,1.43-1.38,2.36-1.01,4.09,1.64,8.67,3.44,11.99,7.2,3.26,3.7,5.17,9.17,6.94,14.16l-3.5.32c1.36-8.4,2.62-16.28,1.25-22.42h0c-1.34-6.02-5.28-10.47-8.63-12.68h0c-3.2-2.11-5.82-2.15-8.86-2.18h0s0,0,0,0c-.86,0-1.59-.61-1.76-1.44-.2-.98.43-1.94,1.41-2.15.98-.2,1.94.43,2.14,1.41h0Z"/>
      <path class="cls-3" d="m1478.2,1381.95h0s0,0,0,0l.81.2c-1.01-.51-2.4-1.23-4.02-1.36h0c-1.88-.15-3.8.49-5.9,2.16h0c-1.86,1.49-3.98,3.93-6.02,6.24h0c-2.25,2.56-4.41,5.02-6.33,6.56h0s.02-.01-.03.02h0c-2.81,2.24-5.02,2.42-7.3,2.23-.55-.05-1.12-.11-1.71-.18-.78-.09-1.53.32-1.86,1.03-.33.71-.17,1.55.4,2.09h0s7.66,7.24,7.66,7.24l-.45-.69c2.8,7.52,5.76,15.5,8.6,19.33,1.78,2.4,3.68,3.44,5.73,3.6,1.35.11,2.64-.18,3.61-.4.98-.21,1.6-1.18,1.39-2.16-.21-.98-1.18-1.6-2.16-1.39h0c-1.07.23-1.83.38-2.55.32h0c-.81-.06-1.82-.41-3.11-2.15h0c-2.45-3.3-5.2-10.64-8.11-18.44-.1-.26-.25-.5-.45-.69h0s-7.67-7.23-7.67-7.23l-1.46,3.12c.58.07,1.22.14,1.85.19h0c2.93.24,6.14-.05,9.85-3.01h0c.1-.08-.07.05.03-.03,2.21-1.78,4.61-4.52,6.79-6.99,2.12-2.41,4.01-4.56,5.56-5.81h0c1.57-1.25,2.6-1.43,3.34-1.37.81.06,1.56.42,2.68.98.25.13.53.2.82.2,1,0,1.81-.81,1.81-1.81s-.81-1.82-1.81-1.82h0Z"/>
      <path class="cls-3" d="m1870.33,1381.91h0s0,0,0,0l-.81.2c1.01-.51,2.39-1.23,4.02-1.36,1.88-.15,3.8.48,5.9,2.16,1.86,1.49,3.98,3.92,6.02,6.24h0c2.25,2.56,4.42,5.02,6.33,6.56h0c.05.04-.01-.01.04.02h0c2.8,2.24,5.02,2.41,7.3,2.23h0c.55-.04,1.11-.11,1.71-.18.78-.09,1.53.32,1.86,1.03.33.71.17,1.55-.4,2.09l-7.66,7.24.45-.69c-2.8,7.52-5.76,15.5-8.59,19.33-1.78,2.4-3.68,3.44-5.73,3.6h0c-1.35.11-2.64-.18-3.61-.39-.98-.21-1.6-1.18-1.39-2.16.21-.98,1.18-1.6,2.16-1.39,1.07.23,1.83.38,2.55.32.81-.07,1.82-.41,3.11-2.14,2.44-3.3,5.2-10.64,8.11-18.44.1-.26.25-.5.45-.69h0s7.67-7.23,7.67-7.23l1.46,3.12c-.58.07-1.21.15-1.85.2-2.93.24-6.14-.05-9.85-3.02h0c-.1-.08.07.05-.03-.02h0c-2.21-1.78-4.61-4.52-6.79-7-2.12-2.41-4.01-4.55-5.56-5.8-1.57-1.26-2.6-1.44-3.34-1.37-.8.06-1.56.42-2.68.99-.25.13-.53.19-.81.19-1,0-1.82-.81-1.82-1.81s.81-1.82,1.81-1.82h0Z"/>
      <path class="cls-3" d="m1559.53,992.64l-15.57-6.93-10.79,272.92,22.84-20.19,1.37-6.4,8.49-209.48-6.34-29.92Z"/>
      <path class="cls-3" d="m1788.93,992.62l15.57-6.94,10.84,272.91-22.85-20.18-1.37-6.4-8.53-209.48,6.34-29.92Z"/>
      <path class="cls-3" d="m1529.93,978.03c-6.14-5.28-12.29-10.56-18.43-15.85l-14.88,328.97,23.54-21.06,9.77-292.07Z"/>
      <path class="cls-3" d="m1818.53,978c6.15-5.28,12.29-10.57,18.43-15.85l14.94,328.97-23.54-21.05-9.83-292.06Z"/>
      <path class="cls-3" d="m1495.97,950.77c-7.58-6.91-15.15-13.82-22.73-20.73l-18.12,400.04,30.2-29.07,10.64-350.24Z"/>
      <path class="cls-3" d="m1852.48,950.73c7.57-6.91,15.15-13.82,22.72-20.73l18.19,400.04-30.21-29.07-10.71-350.24Z"/>
      <path class="cls-3" d="m1460.36,922.49l-2.25.76c-8.16,2.39-16.97,7.59-26.42,15.58l-17.59,427.69,30.98-26.67,15.28-417.37Z"/>
      <path class="cls-3" d="m1888.08,922.45l2.25.76c8.16,2.39,16.97,7.58,26.43,15.58l17.67,427.69-30.98-26.66-15.36-417.37Z"/>
      <path class="cls-3" d="m1878.65,1427.97h0s-.13-.68-.13-.68l.02.05c3.48,8.47,7.09,18.06-11.35,25.63-3.85,1.58-8.67,3.09-14.65,4.51-33,7.87-102.74,13.59-173.46,13.6h-.63c-70.95-.03-143.04-5.82-177.96-13.63-31.88-7.13-34.1-16.39-31.78-26.78.2-.9.44-1.83.66-2.7.25-.97,1.23-1.56,2.21-1.31.97.25,1.55,1.24,1.31,2.21-.22.88-.45,1.76-.64,2.6-1.63,7.31-2.25,15.46,29.03,22.45,34.53,7.73,106.31,13.52,177.17,13.54h.63c70.65,0,140.04-5.73,172.62-13.5,5.86-1.4,10.49-2.85,14.11-4.34,15.58-6.39,12.58-13.09,9.37-20.9l-.02-.05c-.09-.22-.13-.45-.13-.69h0c0-1,.81-1.82,1.81-1.82s1.81.81,1.81,1.81h0Z"/>
      <path class="cls-3" d="m1684.95,1402.7c-2.14-2.5-4.47-5.21-6.15-9.53-1.65-4.23-2.68-10.01-2.34-14.89.35-4.94,2.14-9.13,5.64-11.89,2.42-1.91,5.68-3.13,8.2-3.13.97,0,2.08.18,2.96.82h.02c-.08-.05.14.11.02.02h-.02c.18.12.34.26.48.41h0c1.28,1.32,1.29,3.43,1.34,4.49.06,1.25.13,2.08.42,2.7.49,1.04,1.84,1.82,4.02,2.96.65.34,1.37.71,2.04,1.11,1.99,1.19,5.23,3.7,2.99,7.45-.29.48-.66.95-1.09,1.41-1.5,1.58-4.16,3.33-6.6,4.96-2.49,1.66-4.86,3.25-6.38,4.68-2.74,2.6-2.57,4.57-2.37,7.11.06.79-.39,1.52-1.11,1.82-.72.3-1.56.1-2.07-.5m2.75-2.35l-3.18,1.32c-.23-2.85-.48-6.27,3.49-10.03,1.79-1.7,4.46-3.47,6.85-5.07,2.6-1.74,4.83-3.24,5.99-4.45.29-.3.48-.56.61-.76.34-.57.5-1.13-1.74-2.47-.56-.34-1.18-.66-1.85-1.01-1.8-.94-4.49-2.25-5.62-4.63-.66-1.39-.71-3-.76-4.07-.08-1.62-.2-2.03-.32-2.15h0s0,0,0,0h-.01c-.06-.06.02,0,0-.01h.01s-.26-.13-.86-.13c-1.57,0-4.06.85-5.96,2.35-2.49,1.97-3.97,5.08-4.27,9.31-.31,4.29.63,9.53,2.1,13.32,1.44,3.69,3.39,5.99,5.53,8.49h0Z"/>
      <path class="cls-3" d="m1667.12,763.99c-1.4,0-2.71.06-3.9.2-8.04.88-10.41,4.81-11.92,8.66-2.52-.5-5.05-1-7.53-1.45-6.02-1.09-11.87-1.95-16.8-1.95-1.12,0-2.19.04-3.2.14-7.95.75-12.51,4.64-14.84,10.33-2.22,5.42-2.37,12.41-2.53,18.92v.03c-.02.71.39,1.37,1.03,1.68.25.12.52.18.79.18.42,0,.83-.14,1.17-.43,3.02-2.55,5.55-4.63,9.2-4.63.61,0,1.25.06,1.93.18.64.12,1.33.29,2.06.54h0c6.58,2.23,16.39,9.92,20.06,22.51,3.7,12.69,1.25,30.57-3.25,46.41-4.46,15.74-10.85,29.14-16.44,39.14-5.58,9.99-10.34,16.56-15.16,23.19h0,0c-.15.21-.26.45-.31.71-.16.84.27,1.67,1.05,2.01.24.1.48.15.72.15.57,0,1.12-.26,1.47-.75,4.82-6.65,9.69-13.37,15.39-23.55,5.68-10.17,12.2-23.83,16.76-39.92,4.54-15.98,7.24-34.69,3.24-48.41-4.03-13.81-14.77-22.35-22.39-24.93-.89-.3-1.75-.52-2.57-.68-.91-.16-1.77-.24-2.58-.24-3.46,0-6.15,1.35-8.45,3,.19-5.22.61-10,2.15-13.75,1.8-4.41,5.19-7.47,11.82-8.1.9-.09,1.86-.12,2.87-.12,4.52,0,10.09.79,16.14,1.9,2.93.53,5.94,1.13,8.97,1.73h.01c.12.02.23.03.35.03.75,0,1.44-.46,1.7-1.19,1.39-3.8,2.47-6.99,9.45-7.76,1.05-.12,2.22-.18,3.5-.18,3.14,0,6.91.35,10.96,1.09,6.18,1.12,12.87,3.12,18.74,6.01,11.15,5.5,19.35,14.21,21.87,29.22,1.32,7.84,1.1,17.41.84,28.04-.23,10-.49,20.86.58,31.7,2.2,22.28,10,44.35,17.7,66.17.27.74.96,1.21,1.71,1.21.2,0,.4-.04.61-.11.94-.33,1.44-1.37,1.11-2.31-7.73-21.91-15.36-43.55-17.51-65.32-1.05-10.58-.8-21.22-.56-31.26.25-10.52.49-20.47-.9-28.73-2.74-16.33-11.8-25.94-23.85-31.88-6.23-3.07-13.25-5.16-19.69-6.32-4.18-.76-8.18-1.15-11.6-1.15h0Z"/>
      <path class="cls-3" d="m1629.77,934.65h0s-2.91-1.44-2.91-1.44h0s.05-.05.05-.05c7.11-5.02,13.95-9.85,19.25-23.21,5.41-13.64,9.18-36.05,13-58.78.17-.99,1.1-1.65,2.09-1.49.99.17,1.65,1.1,1.49,2.09-3.78,22.55-7.62,45.43-13.21,59.51-5.69,14.36-13.24,19.69-20.53,24.84l.05-.04h0c-.61.43-1.33.48-1.93.17-.6-.31-.98-.93-.98-1.61h0c0-1,.81-1.82,1.81-1.82s1.82.81,1.82,1.81h0Z"/>
      <path class="cls-3" d="m1661.91,931.75l-3.5-.66h0s0,0,0,0v-.02c2.85-6.95,5.66-13.82,7.79-27.05,2.15-13.34,3.6-33.1,5.06-53,.07-1,.95-1.75,1.94-1.68,1,.07,1.75.94,1.68,1.94-1.46,19.82-2.92,39.78-5.1,53.31-2.19,13.62-5.12,20.78-8.01,27.85v-.02s0,0,0,0h0c-.34.83-1.19,1.29-2.03,1.12-.85-.17-1.47-.91-1.47-1.78,0-1,.81-1.82,1.81-1.82s1.81.81,1.81,1.82h0Z"/>
      <path class="cls-3" d="m1690.99,931.64c0,.99-.79,1.79-1.78,1.82-.98.02-1.81-.75-1.85-1.74l-3.27-80.01c-.04-1,.73-1.85,1.73-1.89,1-.04,1.85.74,1.89,1.74l3.27,80.01-3.62.08h0c0-1,.81-1.82,1.81-1.82s1.81.81,1.81,1.81h0Z"/>
      <path class="cls-3" d="m1722.54,934.77h0c0,.79-.51,1.49-1.25,1.73-.75.24-1.57-.03-2.03-.66l.02.03h0s-.02-.03-.02-.03l-.09-.12c-4.7-6.5-9.5-13.19-12.88-26.5-3.35-13.23-5.31-33.07-7.25-52.69-.1-1,.63-1.89,1.63-1.98,1-.1,1.88.63,1.98,1.63,1.95,19.73,3.88,39.25,7.15,52.16,3.21,12.66,7.69,18.91,12.3,25.27l.09.12-.02-.02h0l-3.27,1.09c0-1,.81-1.82,1.81-1.82s1.82.81,1.82,1.81h0Z"/>
      <path class="cls-3" d="m1656.16,1203.6h0s-27.9,136.43-27.9,136.43l10.7,11.43,14.29-9.19,12.07-94.26-4.61,95.61,13.23,14.28,14.44-14.73-4.84-95.95,12.85,94.92,13.13,9.5,11.41-8.7-28.13-139.33-18.88,15.73-17.75-15.76Z"/>
      <path class="cls-3" d="m1711.4,992.86l-.09.09-.96,175.46h0s0,0,0,0l.09.09.07-.03c14.64-16.5,27.6-33.74,36.85-52.71h0c16.42-33.67,21.24-72.94,25.91-112.65h0s-.04.05-.04.05l-.04-.16c-6.52-.62-12.92-1.23-19.3-1.95h0c-13.98-1.57-27.38-3.6-38.77-7.01-1.27-.38-2.48-.77-3.7-1.18h-.03s0,0,0,0Z"/>
      <path class="cls-3" d="m1774.6,1074.17l-.04.03c-4.06,16.1-9.02,31.47-15.43,45.64l.03.05-.03-.02h0c.1.15.18.31.23.49l16.2,55.82h.08s0,0,0,0h0c.06-1.2.12-2.44.17-3.73h0c.88-22.5-.05-59.61-1.17-98.24l-.04-.03Z"/>
      <path class="cls-3" d="m1575.26,1003.02h0s0,.01,0,.01h0Zm-.03,0h0s0,.03,0,.03l.02-.02h-.02Zm0,.03l-.06.07.09.06-.02-.13Zm61.82-10.2h-.04c-1.22.42-2.42.8-3.7,1.18h0c-11.39,3.41-24.78,5.44-38.76,7.02-6.33.71-12.84,1.34-19.3,1.95h0s0,0,0,0v.02s0,0,0,0v.15s0,0,0,0v.03s-.08-.08-.08-.08h0c4.68,39.7,9.51,78.97,25.94,112.64h0c9.26,18.98,22.21,36.21,36.86,52.71l.18-.07-.99-175.46-.1-.1h0Z"/>
      <path class="cls-3" d="m1573.86,1074.19l-.05.05c-1.11,38.62-2.03,75.74-1.15,98.23.05,1.3.11,2.53.17,3.73h.1s0,0,0,0l16.16-55.69h0c.05-.22.13-.42.25-.6h0s-.01,0-.01,0l.03-.06c-6.41-14.16-11.37-29.53-15.44-45.63l-.05-.04h0Z"/>
      <path class="cls-3" d="m1646.12,823.18h0s2.18-10.18,2.18-10.18l14.34,1.72c-4.45-7.05-8.9-14.1-13.83-19.17-4.93-5.07-10.33-8.16-15.56-9.62-2.43-.68-4.82-1.01-6.98-1.01-2.5,0-4.7.44-6.31,1.28-3.01,1.57-3.97,4.56-4.93,7.55l10.05,2.19,9.84,6,5.18,8.19,6.02,13.04Z"/>
      <path class="cls-3" d="m1668.8,765.95l-1.19.02c-3.46-.04-6.54.8-9.22,2.52l-3.32,2.15-2.69,4.25-30.19-3.04c7.41,2.14,13.25,4.32,17.52,6.55,1.03.55,2.59,1.54,4.71,2.96,1.3.93,4.09,3.09,8.35,6.5,1.29.95,2.5,1.75,3.63,2.39,2.22,1.42,5.52,2.45,9.91,3.09.13,2.42.63,4.11,1.5,5.05,1.29,1.1,2.91,1.68,4.88,1.72,1.28,0,2.38-.36,3.3-1.1,1.17-1.37,2.19-3.14,3.06-5.32,3.78-.69,6.18-1.25,7.2-1.68,1-.24,1.64-1.01,1.91-2.29.46-.36.94-.59,1.43-.69,1.51-.52,9.7-.52,24.57.03l-6.38-8.68-15.57-9.03-20.66-5.33c-.77-.04-1.69-.07-2.76-.08h0Zm4,12.55h.14c1.73.04,3.25.7,4.56,1.95,1.24,1.26,1.88,2.8,1.93,4.63-.05,1.82-.62,3.31-1.72,4.49-.71.78-1.56,1.36-2.55,1.74-.49.19-1,.32-1.54.38l-.88.05c-1.8-.04-3.35-.7-4.63-1.95-1.24-1.26-1.88-2.8-1.93-4.63.05-1.82.62-3.31,1.71-4.48.71-.78,1.56-1.36,2.56-1.75.49-.19,1-.32,1.54-.38l.81-.05Z"/>
      <path class="cls-3" d="m1740.29,1446.46c3.47-1.66,6.95-3.32,8.81-5.59,1.86-2.27,2.13-5.14.81-7.2-1.32-2.07-4.21-3.33-5.33-4.85-1.12-1.52-.48-3.29.27-5.69.68-2.21,1.46-4.94,3.17-4.95.14,0,.3.02.46.06,2.04.52,5.28,4.59,7.02,8.08,1.75,3.49,2,6.41,2.25,9.33-.7,2.93-1.39,5.85-2.88,7.93-1.49,2.09-3.78,3.33-6.34,3.66-.54.07-1.08.1-1.64.1-2.11,0-4.35-.45-6.6-.9h0Z"/>
      <path class="cls-3" d="m1720.35,1400.18h-.16c-.67-.03-1.95.85-3.82,2.66-1.39,1.34-2.42,2.68-3.08,4.02,0,.27.04.42.11.45.87,0,1.66.29,2.38.88.37.25.7,1.04,1,2.36.44,3.91.4,9.06-.12,15.46-4.03,1.69-6.54,3.39-7.55,5.11-.56,1.21-.81,2.25-.75,3.12-.02,1.53.23,3.46.75,5.79l30.01-.19.1-11.84c0-1.07-.07-2.15-.23-3.23-.37-1.8-.84-3.19-1.41-4.17-.53-.93-1.09-1.55-1.66-1.86-.72-.51-1.73-.24-3.03.79-1.34,1.16-2.26,2.35-2.78,3.57-.07.19-.08.46-.03.8,1.85.54,2.9,1.58,3.17,3.13.55,2.82.19,5.12-1.07,6.87-1.05,1.05-2.44,1.46-4.16,1.23-2.17-.51-3.58-1.59-4.23-3.24-.48-.87-.9-3.55-1.27-8.06-.12-1.85-.07-7.01.16-15.49-.03-1.98-.1-3.39-.2-4.24-.22-2.52-.93-3.82-2.13-3.91h0Zm-4.83,31.16h.28c1.38.1,2.41.39,3.09.87.61.45.89.99.81,1.62-.09.7-.57,1.33-1.43,1.89-1.12.7-2.23,1.06-3.31,1.09-.83-.02-1.48-.24-1.97-.67-.24-.21-.41-.46-.53-.73-.12-.21-.16-.59-.12-1.13.04-.39.19-.92.43-1.58.2-.27.39-.47.55-.61.35-.29.65-.47.89-.54.23-.11.67-.18,1.3-.2h0Z"/>
      <path class="cls-3" d="m1642.12,1416.58h-.15c-.9.03-1.7.26-2.39.68-.58.21-1.28,1.04-2.1,2.5-.54.66-.21,3.59,1,8.81-.8,2.22-1.95,3.64-3.45,4.27-1.19.47-2.28.05-3.28-1.25-.7-1.28-1.55-3.8-2.54-7.57-.4-.91-.76-1.44-1.1-1.61-.42-.31-1.07-.29-1.94.07-.75.29-1.84,1.14-3.28,2.56-.72.7-1.12,1.83-1.21,3.38.05.43.18.81.39,1.11,1.24,1.12,1.95,1.86,2.13,2.22.29.51.57,1.28.84,2.33.58,3.5.48,5.89-.31,7.16-.75,2.28-4.93,4.76-12.53,7.44,2.91.68,5.1.98,6.55.9,2.11,0,4.54-.52,7.31-1.59,1.24-.75,2.27-1.72,3.09-2.93,1.29-2.27,1.98-4.14,2.08-5.61l29.28,2c-.35,2.95.06,5.47,1.22,7.56,1.53,1.6,3.54,2.33,6.04,2.17,2.14.13,4.27-.52,6.38-1.95,1.64-1.88,2.35-4.07,2.14-6.58,5.04.8,9,1.16,11.86,1.06,2.59-.09,4.91-.82,6.96-2.2,1.76-1.72,3.07-4.59,3.92-8.6.23-2.3-.2-4.6-1.28-6.9-.78-1.03-2-1.61-3.66-1.74-2.46.15-4.73.71-6.79,1.7-.95.4-1.67.99-2.17,1.78-.66,3.37-1.15,5.23-1.49,5.61-1.34,1.41-3.06,2.03-5.17,1.84-.58-.02-1.12-.43-1.62-1.22-.07-2.99-.29-4.88-.64-5.66-1.01-1.43-1.96-2.3-2.84-2.61-3.66-1.43-12.68-1.8-27.04-1.11-.1-5.29-1.5-7.98-4.21-8.04h0Zm48.83,14.38h.03c.49,0,.85.05,1.1.15.15.05.28.11.41.18.13.07.24.16.35.26l.16.16c.27.32.49.66.64,1.04.25.64.38,1.18.39,1.65.02.25-.05.54-.23.88-.14.21-.34.39-.6.52-.33.14-.53.22-.61.23-.15.04-.3.07-.47.1-.33.06-.7.08-1.09.08-.6-.01-1.1-.07-1.49-.16-.12,0-.39-.1-.8-.28-.15-.08-.29-.16-.4-.26-.33-.27-.57-.57-.71-.89-.17-.34-.25-.78-.26-1.3,0-.75.39-1.36,1.17-1.85.24-.16.39-.25.45-.27,1.05-.16,1.71-.23,1.98-.22m-40.78-1.05h.64c2,.03,4.91.14,8.75.33,2.29.17,4,.31,5.15.45,2.81.29,4.76.79,5.85,1.5.85.62,1.32,1.38,1.41,2.29.14.66.04,2.57-.29,5.71-.2,2.5-1.07,3.78-2.6,3.84-1.29-.06-2.29-.61-2.98-1.65-.19-.35-.26-.77-.22-1.26-.04-.06.14-.82.54-2.27.07-.49.08-.83.01-1.04-.03-.6-.69-1.13-1.98-1.59-1.4-.47-3.4-.72-6-.75-.91-.02-2.17.05-3.79.21-.75.06-2.81.34-6.16.84-.61.08-1.21.14-1.8.17-1.26.05-2.17-.15-2.73-.59-.56-.52-.84-.92-.84-1.19,1.02-1.12,1.71-1.94,2.07-2.46l.27-.46c.29-.9.49-1.36.6-1.39.33-.49,1.7-.72,4.12-.69h0Z"/>
      <path class="cls-3" d="m1612.54,1398.68h0s6.96,6.11,6.96,6.11l-2.89,4.02-1.91,27.76-7.64.21,5.49-38.09Z"/>
      <path class="cls-3" d="m1606.73,1398.49l-4.7.36-4.91,3.05,2.27,1.79c-1.39,18.42-2.2,28.19-2.43,29.32-.28,2.23-1.07,3.75-2.35,4.55-1.7.76-2.93.77-3.69.05-.38-.4-.66-.98-.83-1.76l-.27-4.47c-.08-.54-.2-.94-.39-1.21-.18-.22-.42-.38-.73-.49-2.33-.43-3.8-.79-4.4-1.08-1.06-.53-1.66-1.02-1.81-1.46-.46-1.06-.23-1.98.7-2.75.13-.11.49-.24,1.07-.39l6.93-1.11c.75-.37,1.02-1.13.81-2.29-.17-1.09-.62-2.18-1.36-3.28-.05-.18-1.01-1.01-2.89-2.49l-.88-1.21c-.38-.68-.82-2.19-1.32-4.54-.17-.56-.6-1.34-1.28-2.34-1.58-1.94-3.2-3.04-4.85-3.3-.66-.07-1.41.26-2.24.97l-3.59,3.87c-3.45,1.44-5.67,2.52-6.66,3.23-1.06.65-2,1.65-2.82,3-.63,2.34-.37,3.94.81,4.8.75.75,1.35,1.2,1.8,1.34.48.2,1.69.38,3.62.55.36.14.56.3.6.47.18,1.32-.41,2.68-1.77,4.08-.27.21-.77.34-1.49.37-1.23-.03-2.98-.16-5.24-.4-2.97-.4-4.61-.83-4.93-1.3-.58-.55-.89-1.2-.92-1.95-.11-.88.17-3.21.84-6.97.04-.55-.04-1.21-.23-1.98-.57-2-1.76-2.88-3.59-2.62-2.65,1.34-4.17,3.24-4.57,5.7-.07.28-.06.74.05,1.37,1.13,1.19,1.71,2.48,1.73,3.86.08,1.06.09,3.56.01,7.49-.03,1.02-.2,1.77-.49,2.25-.43.7-1.75,1.48-3.95,2.36.14.05-2.95.86-9.26,2.43,7.59.78,11.75.99,12.5.62.94-.21,1.8-.53,2.55-.98l3.62-3.51c.55-.39,1.4-.72,2.55-1.01.31-.07,1.32-.16,3.02-.27l9.51.33c.72,0,1.38-.09,1.98-.29.12-.02.33-.19.64-.52.24-.96.65-1.8,1.23-2.53.93-.9,1.61-1.31,2.06-1.21.37.03.65.27.83.71.62,3.5,1.09,5.44,1.42,5.83.69.54,1.15.83,1.4.86l3.78.77c.58.28.96.61,1.14,1.01.24.44.49,2.22.77,5.32.22.78.58,1.42,1.08,1.93,1.27,1.06,3.42,1.47,6.47,1.24,2.04-.38,3.77-1.07,5.18-2.08.86-.82,1.61-2.39,2.23-4.69,1.44-5.95,3.32-19.1,5.64-39.44h0Zm-27.77,13.59h.05c.39.01.85.18,1.36.51.61.37,1.07.77,1.39,1.19.53.85.9,1.61,1.12,2.29.17.45.23,1.01.19,1.7-.26,2.72-1.86,4.05-4.82,4.01-1.35-.06-2.3-.4-2.84-1.03-.27-.25-.52-.67-.77-1.27-.2-.55-.27-1.14-.23-1.77.05-1.04.58-2.25,1.57-3.63.2-.32.8-.84,1.79-1.56.43-.28.82-.43,1.17-.42h0Z"/>
      <path class="cls-3" d="m1517.26,1381.34h-.07c-2.93.36-5.36,1.34-7.29,2.95-.1.08-.14.32-.12.71l1.86,2.23c.16.51.18,1.06.06,1.65-.1.59-1.1,2.78-2.99,6.58-.62,2.01-1.18,3.58-1.67,4.7-.62.89-1.21,1.44-1.81,1.68-.35.22-2.6.67-6.76,1.36-.95.22-1.74.69-2.38,1.41-.71.31-1.36,2.08-1.98,5.32-.17,1.51.01,2.8.53,3.88.63,1.73,2.83,3.19,6.58,4.37l2.49.65,12.72,2.6,13.52,3.21c2.35.43,4.13.63,5.35.59,3.84-.25,6.38-1.87,7.65-4.85.91-1.47,1.43-4.62,1.55-9.45l1.27-4.04c.06-1.39-.2-2.22-.79-2.5-3.24-.56-6.42.91-9.55,4.41,2.02,1.3,2.94,2.89,2.78,4.76.1,2.48-.88,4.1-2.93,4.85-1.98.16-4.09-.15-6.31-.91-1.72-.59-2.79-1.35-3.21-2.27-.38-.58-.47-1.55-.27-2.89l1.89-6.02c.25-1.21.37-2.13.36-2.75.01-2.23-.51-3.48-1.57-3.75-2.73.34-5.11,1.82-7.15,4.43-.12.15-.12.45,0,.91l2.13,1.81c.12.12.21.51.28,1.17-.11,1.65-.98,3.01-2.58,4.09-1.31.76-3.02.95-5.13.56-1.83-.45-3.07-1.24-3.75-2.38-.4-.6-.41-1.57-.04-2.9l2.84-6.59,3.12-8.74c.44-1.05,1.09-2.34,1.97-3.9l.81-2.76c.75-2.6.28-4-1.41-4.2h0Zm-16.01,25.53c1.89.19,3.02.41,3.4.67.26.11.48.33.67.67.09.14.15.44.18.9,0,1.62-.35,2.73-1.07,3.32-.94.66-1.98.73-3.11.22-.64-.3-1.18-.74-1.6-1.29-.43-.57-.65-1.19-.68-1.84-.02-.65.14-1.18.49-1.59.22-.32.8-.67,1.73-1.05h0Z"/>
      <path class="cls-3" d="m1507.23,1386.08c-.39,1.41-1.86,2.24-3.27,1.84-1.41-.4-2.24-1.86-1.84-3.27.4-1.41,1.86-2.24,3.27-1.84,1.41.39,2.24,1.86,1.84,3.27h0Z"/>
      <path class="cls-3" d="m1504.25,1393.81c-.39,1.41-1.86,2.24-3.27,1.84-1.41-.39-2.24-1.86-1.85-3.27s1.86-2.24,3.27-1.84c1.41.4,2.24,1.86,1.85,3.27h0Z"/>
      <path class="cls-3" d="m1503.95,1425.15c-.39,1.41-1.86,2.24-3.27,1.84-1.41-.39-2.24-1.86-1.84-3.27.4-1.41,1.86-2.24,3.27-1.84,1.42.39,2.24,1.86,1.84,3.27h0Z"/>
      <path class="cls-3" d="m1514.39,1427.79c-.4,1.41-1.86,2.24-3.27,1.84-1.41-.4-2.24-1.86-1.84-3.27.39-1.41,1.86-2.24,3.27-1.84,1.41.39,2.24,1.86,1.84,3.27h0Z"/>
      <path class="cls-3" d="m1530.42,1431.43c-.4,1.41-1.86,2.24-3.27,1.84-1.41-.39-2.24-1.86-1.84-3.27.39-1.41,1.86-2.24,3.27-1.84,1.41.4,2.24,1.86,1.84,3.27h0Z"/>
      <path class="cls-3" d="m1730.11,1447.3c-.39,1.41-1.86,2.24-3.27,1.84-1.41-.4-2.24-1.86-1.85-3.27.4-1.41,1.86-2.24,3.27-1.84,1.41.4,2.24,1.86,1.85,3.27h0Z"/>
      <path class="cls-3" d="m1720.68,1448.12c-.4,1.41-1.86,2.24-3.27,1.84-1.41-.4-2.24-1.86-1.84-3.27.4-1.42,1.86-2.24,3.27-1.84,1.41.39,2.24,1.86,1.84,3.27h0Z"/>
      <path class="cls-3" d="m1708.93,1408.67c-.4,1.41-1.86,2.24-3.27,1.84-1.41-.4-2.24-1.86-1.84-3.27.4-1.41,1.86-2.24,3.27-1.84,1.41.39,2.24,1.86,1.84,3.27h0Z"/>
      <path class="cls-3" d="m1709.18,1417.82c-.4,1.41-1.86,2.24-3.27,1.85-1.41-.4-2.24-1.86-1.84-3.27.4-1.41,1.86-2.24,3.27-1.84,1.41.39,2.24,1.86,1.84,3.27h0Z"/>
      <path class="cls-3" d="m1847.98,1428.64c-.39,1.41-1.86,2.24-3.27,1.84-1.41-.39-2.24-1.86-1.85-3.27.39-1.41,1.86-2.24,3.27-1.84,1.41.4,2.24,1.86,1.85,3.27h0Z"/>
      <path class="cls-3" d="m1763.57,1444.58c1.62.32,3.23.64,4.81.64.5,0,1-.03,1.5-.11,2.04-.31,3.99-1.37,5.28-2.65,1.29-1.29,1.93-2.79,2.03-5.72.1-2.92-.34-7.26-.5-10.25-.17-2.99-.07-4.62-1.09-5.73-.84-.92-2.44-1.48-4.03-1.48-.34,0-.68.02-1,.07-1.88.3-3.5,1.49-4.64,2.35-1.14.86-1.79,1.41-3.19,4.05-1.4,2.64-3.54,7.36-.58,9.04.97.55,2.48.77,4.37.77,3.87,0,9.3-.93,14.73-1.86l-.88-4.15c-3.08.65-6.15,1.3-8.51,1.69-1.22.2-2.25.33-3.06.33-.76,0-1.34-.11-1.72-.38-.79-.55-.73-1.77.15-3.12.87-1.35,2.55-2.83,3.56-2.85,0,0,.02,0,.02,0,.99,0,1.32,1.43,1.66,2.85.17,3.5.34,7,.18,9.25-.17,2.25-.68,3.26-2.25,4.26-1.57,1-4.19,2.01-6.81,3.01h0Z"/>
      <path class="cls-3" d="m1820.24,1393.35h0c-.39.2-.79.39-1.19.39-.28,0-.56-.09-.86-.34-.71-.61-1.48-2.15-1.81-3.52-.34-1.37-.24-2.57.96-3.59,1.2-1.02,3.52-1.87,5.61-2.29.97-.2,1.9-.3,2.82-.3,1.07,0,2.13.14,3.26.44,2.11.57,4.44,1.71,5.83,3.54,1.39,1.84,1.83,4.36,2.32,7.1.5,2.74,1.04,5.68,1.59,8.61.57,2.64,1.15,5.27,1.97,7.39.82,2.13,1.9,3.74,3.17,4.47.51.29,1.05.44,1.63.44.85,0,1.76-.33,2.71-1.01,1.59-1.14,3.3-3.26,4.93-3.6.16-.03.32-.05.48-.05,1.45,0,2.83,1.31,4.03,2.7,1.33,1.54,2.45,3.17,1.72,4.04-.73.86-3.3.94-5.98,1.42-2.68.47-5.47,1.33-8.26,2.18-1.75.83-3.5,1.66-4.96,1.66-.72,0-1.36-.2-1.91-.69-1.66-1.51-2.37-5.75-2.93-8.95-.57-3.2-.99-5.35-1.41-8.49-.42-3.14-.84-7.25-1.96-10.16-1.12-2.91-2.94-4.61-5.02-4.64h-.05c-2.06,0-4.38,1.63-6.69,3.27h0Z"/>
      <path class="cls-3" d="m1792.58,1403.39l-.04-.42h0s0,.02,0,.02h0c2.02,9.53,4,18.85,6.36,25.3,2.3,6.27,4.34,8.05,4.94,8.05.01,0,.04,0,.11-.04,1.43-.7,3.71-5.81,3.94-10.17.18-3.48-1.12-5.33-3.84-7.14-2.4-1.61-5.45-2.85-7.84-2.85-.53,0-1,.06-1.41.18-1.99.56-3.51,2.59-6.07,6.32-.37.54-.74,1.08-1.15,1.66-.21.29-.47.66-.68.95h0c-.29.4-.4.55-.67.95-1.78,2.53-2.58,4.04-2.54,4.6l-2.03.14,2.03-.14c0-.07-.08-.26-.21-.34-.02-.02.14.1.73.15h0c.19.02.42.03.68.03,5.17,0,17.76-3.58,30.95-7.35l-1.27,1.07c1.57-3.24,3.49-7.34,6.13-9.19,1.21-.85,2.55-1.24,3.9-1.24,1.92,0,3.74.77,5.26,1.85,2.38,1.66,5.38,5.11,3.78,9.23-1.35,3.49-6.07,6.8-9.82,7.09h0c-.19.02-.39.02-.57.02-3.91,0-6.5-3.18-8.29-5.23-.74-.85-.64-2.14.2-2.88.85-.74,2.14-.65,2.88.2,2.15,2.48,3.5,3.83,5.2,3.83.08,0,.17,0,.26,0,2.31-.18,5.6-2.58,6.34-4.51.51-1.3-.28-2.99-2.32-4.42-1.08-.76-2.1-1.1-2.92-1.1-.54,0-1.06.14-1.57.5-1.56,1.09-3,3.92-4.8,7.63-.25.52-.71.91-1.27,1.07-12.79,3.65-26.17,7.5-32.07,7.5-.36,0-.71-.02-1.05-.05-.96-.09-1.91-.32-2.69-.87-.97-.68-1.45-1.66-1.52-2.7l2.03-.15-2.03.15c-.17-2.36,1.89-5.28,3.27-7.24.26-.38.43-.6.68-.97.23-.32.45-.62.66-.93.4-.57.74-1.07,1.12-1.63,2.24-3.26,4.61-6.88,8.33-7.93.82-.23,1.68-.33,2.51-.33,3.54,0,7.38,1.72,10.11,3.54,3.6,2.41,5.93,5.49,5.65,10.75-.23,4.37-2.52,11.82-6.22,13.62-.59.29-1.23.45-1.89.45-3.98,0-6.83-5.43-8.77-10.72-2.49-6.8-4.53-16.44-6.53-25.87h0s0-.02,0-.02c-.03-.14-.04-.28-.04-.42,0-1.12.91-2.04,2.04-2.04s2.04.91,2.04,2.04h0Z"/>
      <path class="cls-3" d="m1834.98,1421.12h0s-2.31-2.02-2.31-2.02l6.69-.89c1.12-.15,2.15.64,2.29,1.75.15,1.12-.64,2.14-1.75,2.29l-6.7.89c-.58.08-1.17-.1-1.61-.49-.44-.39-.7-.94-.7-1.53h0c0-1.13.91-2.04,2.04-2.04s2.04.91,2.04,2.04h0Z"/>
    </g>
  </g>
</svg>