<?xml version="1.0" encoding="utf-8"?>
<svg viewBox="675.5122 116.2117 76.8425 74.785" xmlns="http://www.w3.org/2000/svg">
  <path style="fill: rgb(13, 76, 144);" d="M 697.955 111.259 C 690.326 103.049 677.407 102.813 669.482 110.737 L 664.817 115.402 L 660.152 110.737 C 652.227 102.812 639.308 103.049 631.679 111.259 C 626.409 116.93 625.065 124.969 627.743 131.871 L 656.695 131.871 C 657.266 131.871 657.791 132.18 658.068 132.679 L 660.59 137.213 L 664.358 125.858 C 664.579 125.192 665.232 124.754 665.918 124.783 C 666.62 124.813 667.217 125.305 667.379 125.989 L 671.209 142.035 L 674.334 132.932 C 674.552 132.297 675.15 131.871 675.821 131.871 L 683.812 131.871 C 684.68 131.871 685.384 132.575 685.384 133.443 C 685.384 134.311 684.68 135.015 683.812 135.015 L 676.944 135.015 L 672.424 148.179 C 672.205 148.816 671.606 149.24 670.938 149.24 C 670.912 149.24 670.887 149.239 670.861 149.238 C 670.162 149.205 669.57 148.713 669.408 148.033 L 665.603 132.089 L 662.447 141.6 C 662.25 142.192 661.722 142.612 661.101 142.67 C 660.473 142.734 659.883 142.413 659.581 141.869 L 655.771 135.015 L 629.3 135.015 C 629.73 135.72 630.191 136.411 630.719 137.071 L 664.817 179.729 L 698.915 137.071 C 705.034 129.418 704.625 118.437 697.955 111.259 Z" transform="matrix(0.9999999999999999, 0, 0, 0.9999999999999999, 49.110078367891205, 11.267678596606174)"/>
</svg>